<mxfile host="app.diagrams.net" modified="2021-05-02T02:13:11.568Z" agent="5.0 (Linux; Android 11; Mi A3) AppleWebKit/537.36 (KHTML, like Gecko) Chrome/90.0.4430.91 Mobile Safari/537.36" etag="glZu_A-QD9KrJcEOj2QG" version="14.6.9" type="github">
  <diagram id="VqY2xJBH_lSpKsJC2or-" name="Page-1">
    <mxGraphModel dx="543" dy="-299" grid="1" gridSize="10" guides="1" tooltips="1" connect="1" arrows="1" fold="1" page="1" pageScale="1" pageWidth="827" pageHeight="1169" math="0" shadow="0">
      <root>
        <mxCell id="0" />
        <mxCell id="1" parent="0" />
        <mxCell id="cLdiZ8rDI3rqh0xiKNr0-2" value="Cliente" style="swimlane;fontStyle=1;align=center;verticalAlign=top;childLayout=stackLayout;horizontal=1;startSize=30;horizontalStack=0;resizeParent=1;resizeParentMax=0;resizeLast=0;collapsible=1;marginBottom=0;" vertex="1" parent="1">
          <mxGeometry x="260" y="1210" width="170" height="120" as="geometry" />
        </mxCell>
        <mxCell id="cLdiZ8rDI3rqh0xiKNr0-6" value="Nombre" style="text;strokeColor=none;fillColor=none;align=left;verticalAlign=top;spacingLeft=4;spacingRight=4;overflow=hidden;rotatable=0;points=[[0,0.5],[1,0.5]];portConstraint=eastwest;" vertex="1" parent="cLdiZ8rDI3rqh0xiKNr0-2">
          <mxGeometry y="30" width="170" height="20" as="geometry" />
        </mxCell>
        <mxCell id="cLdiZ8rDI3rqh0xiKNr0-7" value="Dni" style="text;strokeColor=none;fillColor=none;align=left;verticalAlign=top;spacingLeft=4;spacingRight=4;overflow=hidden;rotatable=0;points=[[0,0.5],[1,0.5]];portConstraint=eastwest;" vertex="1" parent="cLdiZ8rDI3rqh0xiKNr0-2">
          <mxGeometry y="50" width="170" height="20" as="geometry" />
        </mxCell>
        <mxCell id="cLdiZ8rDI3rqh0xiKNr0-10" value="ItemsAlquilados" style="text;strokeColor=none;fillColor=none;align=left;verticalAlign=top;spacingLeft=4;spacingRight=4;overflow=hidden;rotatable=0;points=[[0,0.5],[1,0.5]];portConstraint=eastwest;" vertex="1" parent="cLdiZ8rDI3rqh0xiKNr0-2">
          <mxGeometry y="70" width="170" height="20" as="geometry" />
        </mxCell>
        <mxCell id="cLdiZ8rDI3rqh0xiKNr0-4" value="" style="line;strokeWidth=1;fillColor=none;align=left;verticalAlign=middle;spacingTop=-1;spacingLeft=3;spacingRight=3;rotatable=0;labelPosition=right;points=[];portConstraint=eastwest;" vertex="1" parent="cLdiZ8rDI3rqh0xiKNr0-2">
          <mxGeometry y="90" width="170" height="8" as="geometry" />
        </mxCell>
        <mxCell id="cLdiZ8rDI3rqh0xiKNr0-5" value="+ method(type): type" style="text;strokeColor=none;fillColor=none;align=left;verticalAlign=top;spacingLeft=4;spacingRight=4;overflow=hidden;rotatable=0;points=[[0,0.5],[1,0.5]];portConstraint=eastwest;" vertex="1" parent="cLdiZ8rDI3rqh0xiKNr0-2">
          <mxGeometry y="98" width="170" height="22" as="geometry" />
        </mxCell>
        <mxCell id="cLdiZ8rDI3rqh0xiKNr0-11" value="Alquiler" style="swimlane;fontStyle=1;align=center;verticalAlign=top;childLayout=stackLayout;horizontal=1;startSize=26;horizontalStack=0;resizeParent=1;resizeParentMax=0;resizeLast=0;collapsible=1;marginBottom=0;" vertex="1" parent="1">
          <mxGeometry x="520" y="1210" width="170" height="138" as="geometry" />
        </mxCell>
        <mxCell id="cLdiZ8rDI3rqh0xiKNr0-12" value="Cliente" style="text;strokeColor=none;fillColor=none;align=left;verticalAlign=top;spacingLeft=4;spacingRight=4;overflow=hidden;rotatable=0;points=[[0,0.5],[1,0.5]];portConstraint=eastwest;" vertex="1" parent="cLdiZ8rDI3rqh0xiKNr0-11">
          <mxGeometry y="26" width="170" height="26" as="geometry" />
        </mxCell>
        <mxCell id="cLdiZ8rDI3rqh0xiKNr0-20" value="Item" style="text;strokeColor=none;fillColor=none;align=left;verticalAlign=top;spacingLeft=4;spacingRight=4;overflow=hidden;rotatable=0;points=[[0,0.5],[1,0.5]];portConstraint=eastwest;" vertex="1" parent="cLdiZ8rDI3rqh0xiKNr0-11">
          <mxGeometry y="52" width="170" height="26" as="geometry" />
        </mxCell>
        <mxCell id="cLdiZ8rDI3rqh0xiKNr0-21" value="Fecha" style="text;strokeColor=none;fillColor=none;align=left;verticalAlign=top;spacingLeft=4;spacingRight=4;overflow=hidden;rotatable=0;points=[[0,0.5],[1,0.5]];portConstraint=eastwest;" vertex="1" parent="cLdiZ8rDI3rqh0xiKNr0-11">
          <mxGeometry y="78" width="170" height="26" as="geometry" />
        </mxCell>
        <mxCell id="cLdiZ8rDI3rqh0xiKNr0-13" value="" style="line;strokeWidth=1;fillColor=none;align=left;verticalAlign=middle;spacingTop=-1;spacingLeft=3;spacingRight=3;rotatable=0;labelPosition=right;points=[];portConstraint=eastwest;" vertex="1" parent="cLdiZ8rDI3rqh0xiKNr0-11">
          <mxGeometry y="104" width="170" height="8" as="geometry" />
        </mxCell>
        <mxCell id="cLdiZ8rDI3rqh0xiKNr0-14" value="+ method(type): type" style="text;strokeColor=none;fillColor=none;align=left;verticalAlign=top;spacingLeft=4;spacingRight=4;overflow=hidden;rotatable=0;points=[[0,0.5],[1,0.5]];portConstraint=eastwest;" vertex="1" parent="cLdiZ8rDI3rqh0xiKNr0-11">
          <mxGeometry y="112" width="170" height="26" as="geometry" />
        </mxCell>
        <mxCell id="cLdiZ8rDI3rqh0xiKNr0-15" value="&lt;&lt;interface&gt;&gt;&#xa;Item" style="swimlane;fontStyle=1;align=center;verticalAlign=top;childLayout=stackLayout;horizontal=1;startSize=40;horizontalStack=0;resizeParent=1;resizeParentMax=0;resizeLast=0;collapsible=1;marginBottom=0;" vertex="1" parent="1">
          <mxGeometry x="520" y="1430" width="160" height="74" as="geometry" />
        </mxCell>
        <mxCell id="cLdiZ8rDI3rqh0xiKNr0-17" value="" style="line;strokeWidth=1;fillColor=none;align=left;verticalAlign=middle;spacingTop=-1;spacingLeft=3;spacingRight=3;rotatable=0;labelPosition=right;points=[];portConstraint=eastwest;" vertex="1" parent="cLdiZ8rDI3rqh0xiKNr0-15">
          <mxGeometry y="40" width="160" height="8" as="geometry" />
        </mxCell>
        <mxCell id="cLdiZ8rDI3rqh0xiKNr0-18" value="AptoAlquiler()" style="text;strokeColor=none;fillColor=none;align=left;verticalAlign=top;spacingLeft=4;spacingRight=4;overflow=hidden;rotatable=0;points=[[0,0.5],[1,0.5]];portConstraint=eastwest;" vertex="1" parent="cLdiZ8rDI3rqh0xiKNr0-15">
          <mxGeometry y="48" width="160" height="26" as="geometry" />
        </mxCell>
        <mxCell id="cLdiZ8rDI3rqh0xiKNr0-24" style="edgeStyle=orthogonalEdgeStyle;rounded=0;orthogonalLoop=1;jettySize=auto;html=1;" edge="1" parent="1" source="cLdiZ8rDI3rqh0xiKNr0-12" target="cLdiZ8rDI3rqh0xiKNr0-2">
          <mxGeometry relative="1" as="geometry" />
        </mxCell>
        <mxCell id="cLdiZ8rDI3rqh0xiKNr0-25" style="edgeStyle=orthogonalEdgeStyle;rounded=0;orthogonalLoop=1;jettySize=auto;html=1;" edge="1" parent="1" source="cLdiZ8rDI3rqh0xiKNr0-20" target="cLdiZ8rDI3rqh0xiKNr0-15">
          <mxGeometry relative="1" as="geometry" />
        </mxCell>
        <mxCell id="cLdiZ8rDI3rqh0xiKNr0-26" value="Pelicula" style="swimlane;fontStyle=1;align=center;verticalAlign=top;childLayout=stackLayout;horizontal=1;startSize=26;horizontalStack=0;resizeParent=1;resizeParentMax=0;resizeLast=0;collapsible=1;marginBottom=0;fillColor=none;gradientColor=none;" vertex="1" parent="1">
          <mxGeometry x="420" y="1560" width="140" height="112" as="geometry" />
        </mxCell>
        <mxCell id="cLdiZ8rDI3rqh0xiKNr0-27" value="Filmografia" style="text;strokeColor=none;fillColor=none;align=left;verticalAlign=top;spacingLeft=4;spacingRight=4;overflow=hidden;rotatable=0;points=[[0,0.5],[1,0.5]];portConstraint=eastwest;" vertex="1" parent="cLdiZ8rDI3rqh0xiKNr0-26">
          <mxGeometry y="26" width="140" height="26" as="geometry" />
        </mxCell>
        <mxCell id="cLdiZ8rDI3rqh0xiKNr0-30" value="CopiasDisponibles" style="text;strokeColor=none;fillColor=none;align=left;verticalAlign=top;spacingLeft=4;spacingRight=4;overflow=hidden;rotatable=0;points=[[0,0.5],[1,0.5]];portConstraint=eastwest;" vertex="1" parent="cLdiZ8rDI3rqh0xiKNr0-26">
          <mxGeometry y="52" width="140" height="26" as="geometry" />
        </mxCell>
        <mxCell id="cLdiZ8rDI3rqh0xiKNr0-28" value="" style="line;strokeWidth=1;fillColor=none;align=left;verticalAlign=middle;spacingTop=-1;spacingLeft=3;spacingRight=3;rotatable=0;labelPosition=right;points=[];portConstraint=eastwest;" vertex="1" parent="cLdiZ8rDI3rqh0xiKNr0-26">
          <mxGeometry y="78" width="140" height="8" as="geometry" />
        </mxCell>
        <mxCell id="cLdiZ8rDI3rqh0xiKNr0-29" value="AptoAlquiler()" style="text;strokeColor=none;fillColor=none;align=left;verticalAlign=top;spacingLeft=4;spacingRight=4;overflow=hidden;rotatable=0;points=[[0,0.5],[1,0.5]];portConstraint=eastwest;" vertex="1" parent="cLdiZ8rDI3rqh0xiKNr0-26">
          <mxGeometry y="86" width="140" height="26" as="geometry" />
        </mxCell>
        <mxCell id="cLdiZ8rDI3rqh0xiKNr0-31" value="Vehiculos" style="swimlane;fontStyle=1;align=center;verticalAlign=top;childLayout=stackLayout;horizontal=1;startSize=26;horizontalStack=0;resizeParent=1;resizeParentMax=0;resizeLast=0;collapsible=1;marginBottom=0;fillColor=none;gradientColor=none;" vertex="1" parent="1">
          <mxGeometry x="670" y="1560" width="130" height="164" as="geometry" />
        </mxCell>
        <mxCell id="cLdiZ8rDI3rqh0xiKNr0-32" value="Marca" style="text;strokeColor=none;fillColor=none;align=left;verticalAlign=top;spacingLeft=4;spacingRight=4;overflow=hidden;rotatable=0;points=[[0,0.5],[1,0.5]];portConstraint=eastwest;" vertex="1" parent="cLdiZ8rDI3rqh0xiKNr0-31">
          <mxGeometry y="26" width="130" height="26" as="geometry" />
        </mxCell>
        <mxCell id="cLdiZ8rDI3rqh0xiKNr0-35" value="Kms" style="text;strokeColor=none;fillColor=none;align=left;verticalAlign=top;spacingLeft=4;spacingRight=4;overflow=hidden;rotatable=0;points=[[0,0.5],[1,0.5]];portConstraint=eastwest;" vertex="1" parent="cLdiZ8rDI3rqh0xiKNr0-31">
          <mxGeometry y="52" width="130" height="26" as="geometry" />
        </mxCell>
        <mxCell id="cLdiZ8rDI3rqh0xiKNr0-36" value="Patente" style="text;strokeColor=none;fillColor=none;align=left;verticalAlign=top;spacingLeft=4;spacingRight=4;overflow=hidden;rotatable=0;points=[[0,0.5],[1,0.5]];portConstraint=eastwest;" vertex="1" parent="cLdiZ8rDI3rqh0xiKNr0-31">
          <mxGeometry y="78" width="130" height="26" as="geometry" />
        </mxCell>
        <mxCell id="cLdiZ8rDI3rqh0xiKNr0-37" value="Tipo" style="text;strokeColor=none;fillColor=none;align=left;verticalAlign=top;spacingLeft=4;spacingRight=4;overflow=hidden;rotatable=0;points=[[0,0.5],[1,0.5]];portConstraint=eastwest;" vertex="1" parent="cLdiZ8rDI3rqh0xiKNr0-31">
          <mxGeometry y="104" width="130" height="26" as="geometry" />
        </mxCell>
        <mxCell id="cLdiZ8rDI3rqh0xiKNr0-33" value="" style="line;strokeWidth=1;fillColor=none;align=left;verticalAlign=middle;spacingTop=-1;spacingLeft=3;spacingRight=3;rotatable=0;labelPosition=right;points=[];portConstraint=eastwest;" vertex="1" parent="cLdiZ8rDI3rqh0xiKNr0-31">
          <mxGeometry y="130" width="130" height="8" as="geometry" />
        </mxCell>
        <mxCell id="cLdiZ8rDI3rqh0xiKNr0-34" value="AptoAlquiler()" style="text;strokeColor=none;fillColor=none;align=left;verticalAlign=top;spacingLeft=4;spacingRight=4;overflow=hidden;rotatable=0;points=[[0,0.5],[1,0.5]];portConstraint=eastwest;" vertex="1" parent="cLdiZ8rDI3rqh0xiKNr0-31">
          <mxGeometry y="138" width="130" height="26" as="geometry" />
        </mxCell>
        <mxCell id="cLdiZ8rDI3rqh0xiKNr0-51" value="Implements" style="endArrow=open;endSize=12;dashed=1;html=1;" edge="1" parent="1" source="cLdiZ8rDI3rqh0xiKNr0-31" target="cLdiZ8rDI3rqh0xiKNr0-15">
          <mxGeometry width="160" relative="1" as="geometry">
            <mxPoint x="590" y="1630" as="sourcePoint" />
            <mxPoint x="750" y="1630" as="targetPoint" />
            <Array as="points">
              <mxPoint x="735" y="1530" />
              <mxPoint x="601" y="1530" />
            </Array>
          </mxGeometry>
        </mxCell>
        <mxCell id="cLdiZ8rDI3rqh0xiKNr0-52" value="Implements" style="endArrow=open;endSize=12;dashed=1;html=1;" edge="1" parent="1" source="cLdiZ8rDI3rqh0xiKNr0-26" target="cLdiZ8rDI3rqh0xiKNr0-15">
          <mxGeometry width="160" relative="1" as="geometry">
            <mxPoint x="530" y="1530" as="sourcePoint" />
            <mxPoint x="400.8730158730158" y="1474" as="targetPoint" />
            <Array as="points">
              <mxPoint x="490" y="1530" />
              <mxPoint x="600" y="1530" />
            </Array>
          </mxGeometry>
        </mxCell>
      </root>
    </mxGraphModel>
  </diagram>
</mxfile>
